<svg xmlns="http://www.w3.org/2000/svg" viewBox="0 0 799.65 239.25"><path d="M767.01 0H32.64C14.64 0 0 14.64 0 32.64v173.97c0 18 14.64 32.64 32.64 32.64h734.37c17.99 0 32.64-14.64 32.64-32.64V32.64C799.65 14.64 785 0 767.01 0m26.94 206.61c0 14.88-12.06 26.94-26.94 26.94H32.64c-14.88 0-26.94-12.06-26.94-26.94V32.64C5.7 17.76 17.76 5.7 32.64 5.7h734.37c14.88 0 26.94 12.06 26.94 26.94z" style="fill:#a6a6a6"/><rect width="788.26" height="227.86" x="5.7" y="5.7" rx="26.94" ry="26.94"/><rect width="788.26" height="227.86" x="5.7" y="5.7" rx="26.94" ry="26.94"/><path d="m278.13 63.92-3.02-9.47c-.74-2.34-1.37-4.94-1.94-7.17h-.11c-.56 2.22-1.14 4.89-1.81 7.17l-2.96 9.47zm-10.99 5.29-3.3 10.89h-7.25l12.32-38.41h8.94l12.48 38.41h-7.51l-3.47-10.89h-12.2Zm33.65-16.84 4.5 14.06c.8 2.45 1.36 4.67 1.87 6.96h.17c.51-2.28 1.14-4.44 1.88-6.96l4.44-14.06h7.34l-10.6 27.74h-6.88l-10.32-27.74zm41.35 14.16c-4.96-.06-9.7.97-9.7 5.18 0 2.73 1.77 3.99 3.99 3.99 2.84 0 4.84-1.82 5.51-3.82.18-.51.18-1.03.18-1.54v-3.82h.01Zm6.82 6.9c0 2.51.11 4.96.46 6.65h-6.33l-.5-3.06h-.18c-1.64 2.15-4.55 3.69-8.19 3.69-5.58 0-8.72-4.03-8.72-8.25 0-6.96 6.2-10.54 16.45-10.48v-.46c0-1.82-.73-4.84-5.63-4.84-2.73 0-5.58.85-7.47 2.05l-1.37-4.56c2.05-1.25 5.64-2.44 10.04-2.44 8.89 0 11.45 5.63 11.45 11.73v9.97Zm9.92-21.06h7v27.74h-7zm3.46-3.99c-2.32 0-3.86-1.71-3.86-3.76 0-2.16 1.58-3.82 3.93-3.82s3.86 1.65 3.92 3.82c0 2.05-1.54 3.76-3.92 3.76zm13.62 31.73h7.02V39.59h-7.02V80.1Zm31.84-13.58c-4.96-.06-9.7.97-9.7 5.18 0 2.73 1.77 3.99 3.99 3.99 2.85 0 4.84-1.82 5.53-3.82.17-.51.17-1.03.17-1.54v-3.82h.01Zm6.82 6.9c0 2.51.11 4.96.46 6.65h-6.31l-.51-3.06h-.17c-1.65 2.15-4.56 3.69-8.21 3.69-5.57 0-8.72-4.03-8.72-8.25 0-6.96 6.22-10.54 16.46-10.48v-.46c0-1.82-.74-4.84-5.64-4.84-2.73 0-5.58.85-7.45 2.05l-1.37-4.56c2.05-1.25 5.63-2.44 10.03-2.44 8.89 0 11.45 5.63 11.45 11.73v9.97h-.01Zm16.93-4.78c0 .57.06 1.14.17 1.65.74 2.85 3.19 4.9 6.2 4.9 4.39 0 7.07-3.47 7.07-9.11 0-4.9-2.34-8.9-7.02-8.9-2.85 0-5.46 2.05-6.2 5.13-.11.51-.23 1.14-.23 1.82v4.51Zm-7.02-29.05h7.02v16.58h.11c1.71-2.68 4.72-4.43 8.89-4.43 6.79 0 11.62 5.63 11.56 14.07 0 9.97-6.31 14.92-12.59 14.92-3.59 0-6.77-1.37-8.77-4.78h-.11l-.34 4.16h-5.99c.11-1.88.23-4.96.23-7.76V39.59Zm35.84 40.51h7V39.59h-7V80.1Zm34.28-16.81c.06-2.56-1.08-6.79-5.74-6.79-4.33 0-6.16 3.93-6.45 6.79zm-12.19 4.89c.17 5.01 4.1 7.19 8.56 7.19 3.24 0 5.51-.51 7.68-1.25l1.03 4.77c-2.39 1.04-5.71 1.77-9.68 1.77-9.01 0-14.31-5.51-14.31-14 0-7.7 4.67-14.92 13.57-14.92s11.96 7.39 11.96 13.5c0 1.31-.11 2.34-.23 2.95h-18.57Zm53.6 7.47c3.98 0 6.77-3.87 6.77-9.51 0-4.33-1.94-9.35-6.71-9.35s-6.96 4.84-6.96 9.47c0 5.34 2.68 9.4 6.82 9.4h.08Zm-.23 5.07c-7.82 0-13.9-5.35-13.9-14.3s5.97-14.7 14.35-14.7 13.79 5.8 13.79 14.24c0 10.2-7.19 14.75-14.18 14.75h-.06Zm22.48-20.11c0-3.19-.1-5.88-.22-8.27h6.08l.34 4.16h.17c1.25-2.16 4.27-4.77 8.9-4.77s9.85 3.12 9.85 11.91V80.1h-7.02V64.45c0-3.99-1.48-7.02-5.29-7.02-2.79 0-4.73 1.99-5.47 4.1-.23.57-.34 1.42-.34 2.22v16.34h-7.02V60.62Zm57.42-15.38v7.11h6.65v5.24h-6.65v12.19c0 3.42.91 5.13 3.58 5.13 1.25 0 1.94-.06 2.73-.28l.11 5.29c-1.03.41-2.91.74-5.07.74-2.61 0-4.72-.85-6.03-2.27-1.54-1.59-2.22-4.16-2.22-7.82V57.58h-3.93v-5.24h3.93v-5.17l6.9-1.94h-.01Zm14.46-5.65h7.02v16.52h.11a9.2 9.2 0 0 1 3.47-3.13 9.9 9.9 0 0 1 4.83-1.24c4.73 0 9.68 3.12 9.68 12.02v16.35h-7V64.5c0-3.99-1.48-7.07-5.35-7.07-2.72 0-4.66 1.82-5.46 3.93-.23.63-.28 1.37-.28 2.11V80.1h-7.02zh-.01Zm52.22 23.71c.06-2.56-1.08-6.79-5.76-6.79-4.33 0-6.14 3.93-6.43 6.79zm-12.19 4.89c.17 5.01 4.09 7.19 8.53 7.19 3.25 0 5.53-.51 7.68-1.25l1.04 4.77c-2.39 1.04-5.71 1.77-9.7 1.77-9 0-14.3-5.51-14.3-14 0-7.7 4.67-14.92 13.56-14.92s11.96 7.39 11.96 13.5c0 1.31-.11 2.34-.23 2.95h-18.55Zm-490.24 49.16c-.18-19 15.55-28.25 16.28-28.69-8.91-13-22.72-14.77-27.58-14.91-11.59-1.21-22.84 6.96-28.74 6.96s-15.14-6.82-24.93-6.63c-12.63.21-24.44 7.51-30.91 18.84-13.34 23.14-3.4 57.12 9.41 75.82 6.41 9.15 13.89 19.39 23.67 19.01 9.58-.4 13.16-6.11 24.72-6.11s14.82 6.11 24.81 5.88c10.28-.17 16.75-9.19 22.92-18.44 7.42-10.49 10.38-20.83 10.49-21.35-.24-.09-19.96-7.61-20.15-30.4ZM161.1 61.46c5.15-6.45 8.69-15.22 7.7-24.12-7.45.34-16.78 5.16-22.15 11.46-4.75 5.56-9.01 14.67-7.9 23.22 8.39.63 16.98-4.22 22.35-10.56h-.01Zm134.48 92.16-6.62-20.43c-.69-2.08-2.01-7-3.95-14.73h-.23c-.77 3.33-2.03 8.24-3.73 14.73l-6.51 20.43h21.03Zm22.87 32.63H305.1l-7.31-22.98h-25.41l-6.97 22.98h-13l25.2-78.23h15.54zm52.01-28.44c0-5.5-1.24-10.03-3.73-13.58-2.71-3.7-6.35-5.57-10.9-5.57-3.1 0-5.91 1.04-8.41 3.08-2.51 2.06-4.16 4.75-4.94 8.08-.39 1.54-.57 2.8-.57 3.81v9.41c0 4.1 1.25 7.56 3.76 10.39 2.52 2.84 5.79 4.24 9.81 4.24 4.73 0 8.41-1.81 11.02-5.46 2.65-3.63 3.96-8.42 3.96-14.39Zm12.77-.47c0 9.59-2.6 17.19-7.78 22.75-4.65 4.96-10.42 7.43-17.29 7.43-7.44 0-12.77-2.68-16.02-8.01h-.23v29.72h-12.54V148.4c0-6.03-.15-12.21-.46-18.57h11.02l.69 8.95h.24c4.18-6.74 10.52-10.11 19.03-10.11 6.64 0 12.21 2.63 16.64 7.9 4.44 5.27 6.69 12.19 6.69 20.77zm52.1.47c0-5.5-1.24-10.03-3.73-13.58-2.71-3.7-6.35-5.57-10.9-5.57-3.1 0-5.9 1.04-8.41 3.08-2.52 2.06-4.15 4.75-4.92 8.08-.4 1.54-.58 2.8-.58 3.81v9.41c0 4.1 1.24 7.56 3.75 10.39 2.52 2.84 5.79 4.24 9.82 4.24 4.72 0 8.4-1.81 11.02-5.46 2.62-3.63 3.95-8.42 3.95-14.39Zm12.76-.47c0 9.59-2.57 17.19-7.77 22.75-4.65 4.96-10.4 7.43-17.29 7.43-7.43 0-12.76-2.68-16.02-8.01h-.22v29.72h-12.54V148.4c0-6.03-.16-12.21-.46-18.57h11.02l.69 8.95h.24c4.16-6.74 10.5-10.11 19.01-10.11 6.65 0 12.2 2.63 16.67 7.9 4.44 5.27 6.65 12.19 6.65 20.77h.01Zm72.56 6.98c0 6.64-2.31 12.06-6.96 16.25-5.1 4.56-12.19 6.85-21.29 6.85-8.42 0-15.19-1.63-20.3-4.88l2.91-10.44c5.51 3.33 11.55 4.98 18.14 4.98 4.72 0 8.4-1.06 11.03-3.18 2.62-2.14 3.93-4.99 3.93-8.56 0-3.17-1.07-5.86-3.24-8.02s-5.78-4.18-10.8-6.05c-13.69-5.12-20.54-12.6-20.54-22.43 0-6.43 2.39-11.7 7.2-15.81 4.78-4.1 11.18-6.17 19.14-6.17 7.13 0 13.04 1.25 17.76 3.73l-3.13 10.22c-4.41-2.39-9.4-3.61-14.97-3.61-4.42 0-7.85 1.08-10.32 3.25-2.08 1.94-3.13 4.31-3.13 7.09 0 3.1 1.18 5.64 3.59 7.66 2.08 1.86 5.88 3.86 11.37 6.05 6.73 2.71 11.68 5.88 14.86 9.51 3.17 3.63 4.76 8.17 4.76 13.58h.01Zm41.42-25.08h-13.81v27.39c0 6.97 2.44 10.45 7.33 10.45 2.22 0 4.09-.18 5.56-.57l.34 9.51c-2.45.95-5.72 1.4-9.74 1.4-4.94 0-8.83-1.52-11.62-4.52-2.78-3.02-4.18-8.1-4.18-15.21v-28.44h-8.24v-9.41h8.24v-10.32l12.3-3.73v14.04h13.81v9.41zm49.34 18.74c0-5.21-1.13-9.65-3.38-13.39-2.61-4.5-6.37-6.76-11.24-6.76s-8.86 2.26-11.5 6.76c-2.26 3.74-3.35 8.27-3.35 13.63s1.09 9.65 3.35 13.38c2.71 4.5 6.51 6.76 11.39 6.76s8.53-2.28 11.24-6.87c2.32-3.79 3.47-8.29 3.47-13.5h.01Zm13-.4c0 8.67-2.46 15.78-7.43 21.35-5.18 5.73-12.08 8.58-20.66 8.58s-14.88-2.75-19.8-8.24c-4.9-5.49-7.36-12.42-7.36-20.77s2.52-15.9 7.6-21.46c5.06-5.58 11.89-8.36 20.47-8.36s14.96 2.75 19.97 8.24c4.81 5.35 7.2 12.24 7.2 20.67Zm40.74-16.72c-1.24-.23-2.55-.34-3.95-.34-4.41 0-7.83 1.66-10.22 4.99-2.08 2.95-3.12 6.65-3.12 11.13v29.61h-12.53l.1-38.64c0-6.52-.16-12.43-.46-17.77h10.91l.46 10.8h.33c1.32-3.7 3.42-6.7 6.28-8.94 2.79-2.01 5.82-3.02 9.07-3.02 1.15 0 2.21.09 3.13.23v11.96Zm44.09 11.27c.09-3.7-.73-6.93-2.43-9.64-2.16-3.47-5.51-5.23-9.99-5.23-4.09 0-7.43 1.71-9.98 5.12-2.08 2.71-3.34 5.96-3.69 9.75zm11.95 3.25c0 2.26-.15 4.14-.44 5.69h-37.6c.13 5.57 1.95 9.83 5.45 12.77 3.17 2.63 7.27 3.93 12.3 3.93q8.34 0 15.21-2.67l1.97 8.72c-5.34 2.31-11.64 3.5-18.93 3.5-8.74 0-15.61-2.57-20.6-7.74-4.98-5.13-7.49-12.04-7.49-20.71s2.31-15.6 6.97-21.24c4.86-6.05 11.45-9.06 19.71-9.06s14.3 3.01 18.48 9.06c3.33 4.78 4.96 10.72 4.96 17.76h.01Z" style="fill:#fff"/></svg>