<svg xmlns="http://www.w3.org/2000/svg" viewBox="0 0 200 200"><path d="M200 48.28v103.44c0 26.65-21.63 48.27-48.28 48.27H108.3v-64.2h25.89c2.68 0 4.94-2.01 5.28-4.68l1.99-15.99c.39-3.18-2.08-6-5.28-6H108.3V85.78c0-7.36 5.94-13.33 13.27-13.33h16.6c1.83 0 3.32-1.5 3.32-3.33V49.11c0-1.83-1.49-3.33-3.32-3.33h-23.24c-18.33 0-33.19 14.93-33.19 33.34v30H61.82c-1.83 0-3.32 1.5-3.32 3.33v20.01c0 1.83 1.49 3.33 3.32 3.33h19.92v64.2H48.28C21.62 199.99 0 178.37 0 151.72V48.28C0 21.62 21.62 0 48.28 0h103.44C178.37 0 200 21.62 200 48.28" style="fill:#fff"/></svg>