<svg xmlns="http://www.w3.org/2000/svg" viewBox="0 0 200 200"><defs><style>.c{fill:#fff}</style></defs><g id="b"><path d="M151.73 0H48.28C21.62 0 0 21.62 0 48.28v103.44c0 26.65 21.62 48.27 48.28 48.27h103.45c26.64 0 48.27-21.62 48.27-48.27V48.28C200 21.62 178.37 0 151.73 0m31.03 148.27c0 19.04-15.45 34.49-34.49 34.49H51.72c-19.03 0-34.48-15.45-34.48-34.49V51.72c0-19.03 15.45-34.48 34.48-34.48h96.55c19.04 0 34.49 15.45 34.49 34.48z" class="c"/><path d="M100.09 48.28c-28.55 0-51.72 23.17-51.72 51.72s23.17 51.72 51.72 51.72 51.73-23.17 51.73-51.72-23.17-51.72-51.73-51.72m0 86.2c-19 0-34.48-15.49-34.48-34.48s15.48-34.48 34.48-34.48S134.58 81 134.58 100s-15.48 34.48-34.49 34.48" class="c"/></g></svg>