<svg xmlns="http://www.w3.org/2000/svg" xml:space="preserve" x="0px" y="0px" viewBox="0 0 800 239.2"><path d="M770.4 237H29.6C13 237 0 224 0 207.4V29.6C0 13 13 0 29.6 0h740.7C787 0 800 13 800 29.6v177.8c0 16.6-13 29.6-29.6 29.6"/><path d="M770.4 4.7c13.6 0 24.9 11.3 24.9 24.9v177.8c0 13.6-11.3 24.9-24.9 24.9H29.6C16 232.3 4.7 221 4.7 207.4V29.6C4.7 16 16 4.7 29.6 4.7zm0-4.7H29.6C13 0 0 13.6 0 29.6v177.8C0 224 13 237 29.6 237h740.7c16.6 0 29.6-13 29.6-29.6V29.6C800 13.6 787 0 770.4 0" style="fill:#a6a6a6"/><path d="M280.9 60.4c0 4.7-1.2 8.9-4.1 11.9-3.6 3.6-7.7 5.3-13 5.3s-9.5-1.8-13-5.3c-3.6-3.6-5.3-7.7-5.3-13s1.8-9.5 5.3-13c3.6-3.6 7.7-5.3 13-5.3 2.4 0 4.7.6 7.1 1.8s4.1 2.4 5.3 4.1l-3 3c-2.4-3-5.3-4.1-9.5-4.1-3.6 0-7.1 1.2-9.5 4.1-3 2.4-4.1 5.9-4.1 10.1s1.2 7.7 4.1 10.1 5.9 4.1 9.5 4.1c4.1 0 7.1-1.2 10.1-4.1 1.8-1.8 3-4.1 3-7.1h-13v-4.7H281zm27.2-14.8h-16v11.3H307V61h-14.8v11.3h16V77h-20.7V41.5h20.7v4.1zM327.7 77H323V45.6h-10.1v-4.1h24.9v4.1h-10.1zm27.3 0V41.5h4.7V77zm24.9 0h-4.7V45.6H365v-4.1h24.3v4.1h-10.1V77zm56.2-4.7c-3.6 3.6-7.7 5.3-13 5.3s-9.5-1.8-13-5.3c-3.6-3.6-5.3-7.7-5.3-13s1.8-9.5 5.3-13 7.7-5.3 13-5.3 9.5 1.8 13 5.3c3.6 3.6 5.3 7.7 5.3 13s-1.7 9.4-5.3 13zm-22.5-3c2.4 2.4 5.9 4.1 9.5 4.1s7.1-1.2 9.5-4.1c2.4-2.4 4.1-5.9 4.1-10.1s-1.2-7.7-4.1-10.1c-2.4-2.4-5.9-4.1-9.5-4.1s-7.1 1.2-9.5 4.1c-2.4 2.4-4.1 5.9-4.1 10.1s1.2 7.8 4.1 10.1zM448 77V41.5h5.3l17.2 27.9V41.5h4.7V77h-4.7l-18.4-29v29z" style="fill:#fff;stroke:#fff;stroke-width:1.1852;stroke-miterlimit:59.2593"/><path d="M403.6 129.2c-14.2 0-25.5 10.7-25.5 25.5 0 14.2 11.3 25.5 25.5 25.5s25.5-10.7 25.5-25.5c-.1-15.4-11.3-25.5-25.5-25.5m0 40.3c-7.7 0-14.2-6.5-14.2-15.4s6.5-15.4 14.2-15.4 14.2 5.9 14.2 15.4c0 8.9-6.5 15.4-14.2 15.4m-55.2-40.3c-14.2 0-25.5 10.7-25.5 25.5 0 14.2 11.3 25.5 25.5 25.5s25.5-10.7 25.5-25.5c0-15.4-11.2-25.5-25.5-25.5m0 40.3c-7.7 0-14.2-6.5-14.2-15.4s6.5-15.4 14.2-15.4 14.2 5.9 14.2 15.4c.1 8.9-6.5 15.4-14.2 15.4m-65.7-32.6v10.7h25.5c-.6 5.9-3 10.7-5.9 13.6-3.6 3.6-9.5 7.7-19.6 7.7-16 0-27.9-12.4-27.9-28.4s12.4-28.4 27.9-28.4c8.3 0 14.8 3.6 19.6 7.7l7.7-7.7c-6.5-5.9-14.8-10.7-26.7-10.7-21.3 0-39.7 17.8-39.7 39.1s18.4 39.1 39.7 39.1c11.9 0 20.1-3.6 27.3-11.3 7.1-7.1 9.5-17.2 9.5-24.9 0-2.4 0-4.7-.6-6.5zm269 8.3c-2.4-5.9-8.3-16-21.3-16s-23.7 10.1-23.7 25.5c0 14.2 10.7 25.5 24.9 25.5 11.3 0 18.4-7.1 20.7-11.3L544 163c-3 4.1-6.5 7.1-12.4 7.1s-9.5-2.4-12.4-7.7l33.8-14.2zm-34.4 8.3c0-9.5 7.7-14.8 13-14.8 4.1 0 8.3 2.4 9.5 5.3zm-27.8 24.3h11.3v-74.1h-11.3zm-17.8-43.3c-3-3-7.7-5.9-13.6-5.9-12.4 0-24.3 11.3-24.3 25.5s11.3 24.9 24.3 24.9c5.9 0 10.7-3 13-5.9h.6v3.6c0 9.5-5.3 14.8-13.6 14.8-6.5 0-11.3-4.7-12.4-8.9l-9.5 4.1c3 6.5 10.1 14.8 22.5 14.8 13 0 23.7-7.7 23.7-26.1v-45h-10.7zm-13 35c-7.7 0-14.2-6.5-14.2-15.4s6.5-15.4 14.2-15.4 13.6 6.5 13.6 15.4-5.9 15.4-13.6 15.4m144.6-65.8h-26.7v74.1h11.3v-27.9h15.4c12.4 0 24.3-8.9 24.3-23.1s-11.9-23.1-24.3-23.1m.6 35.6h-16v-25.5h16c8.3 0 13 7.1 13 12.4-.6 6.5-5.3 13.1-13 13.1m68.1-10.7c-8.3 0-16.6 3.6-19.6 11.3l10.1 4.1c2.4-4.1 5.9-5.3 10.1-5.3 5.9 0 11.3 3.6 11.9 9.5v.6c-1.8-1.2-6.5-3-11.3-3-10.7 0-21.3 5.9-21.3 16.6 0 10.1 8.9 16.6 18.4 16.6 7.7 0 11.3-3.6 14.2-7.1h.6v5.9h10.7v-28.4c-1.3-13.1-11.4-20.8-23.8-20.8m-1.2 40.9c-3.6 0-8.9-1.8-8.9-6.5 0-5.9 6.5-7.7 11.9-7.7 4.7 0 7.1 1.2 10.1 2.4-1.2 7-7.2 11.8-13.1 11.8m62.2-39.1-12.4 32h-.6l-13-32h-11.9l19.6 45-11.3 24.9h11.3l30.2-69.9zm-99.5 47.4h11.3v-74.1h-11.3z" style="fill:#fff"/><linearGradient id="a" x1="25.3374" x2="8.5544" y1="191.3746" y2="208.1566" gradientTransform="translate(-20.99 -1082.485)scale(5.9259)" gradientUnits="userSpaceOnUse"><stop offset="0" style="stop-color:#00a0ff"/><stop offset="7.000001e-03" style="stop-color:#00a1ff"/><stop offset="0.26" style="stop-color:#00beff"/><stop offset="0.512" style="stop-color:#00d2ff"/><stop offset="0.76" style="stop-color:#00dfff"/><stop offset="1" style="stop-color:#00e3ff"/></linearGradient><path d="M61.6 44.4c-1.8 1.8-2.4 4.7-2.4 8.3v131c0 3.6 1.2 6.5 3 8.3l.6.6 73.5-73.5v-1.2z" style="fill:url(#a)"/><linearGradient id="b" x1="37.3761" x2="13.1791" y1="202.7193" y2="202.7193" gradientTransform="translate(-20.99 -1082.485)scale(5.9259)" gradientUnits="userSpaceOnUse"><stop offset="0" style="stop-color:#ffe000"/><stop offset="0.409" style="stop-color:#ffbd00"/><stop offset="0.775" style="stop-color:orange"/><stop offset="1" style="stop-color:#ff9c00"/></linearGradient><path d="m160 144-24.3-24.3v-1.8L160 93.6l.6.6 29 16.6c8.3 4.7 8.3 12.4 0 17.2z" style="fill:url(#b)"/><linearGradient id="c" x1="28.3576" x2="5.5996" y1="204.9538" y2="227.7118" gradientTransform="translate(-20.99 -1082.485)scale(5.9259)" gradientUnits="userSpaceOnUse"><stop offset="0" style="stop-color:#ff3a44"/><stop offset="1" style="stop-color:#c31162"/></linearGradient><path d="m160.6 143.4-24.9-24.9-74.1 74.1c3 3 7.1 3 12.4.6z" style="fill:url(#c)"/><linearGradient id="d" x1="10.8036" x2="20.9666" y1="182.8808" y2="193.0438" gradientTransform="translate(-20.99 -1082.485)scale(5.9259)" gradientUnits="userSpaceOnUse"><stop offset="0" style="stop-color:#32a071"/><stop offset="6.900000e-02" style="stop-color:#2da771"/><stop offset="0.476" style="stop-color:#15cf74"/><stop offset="0.801" style="stop-color:#06e775"/><stop offset="1" style="stop-color:#00f076"/></linearGradient><path d="M160.6 93.6 74.1 44.4c-5.3-3-9.5-2.4-12.4.6l74.1 73.5z" style="fill:url(#d)"/><path d="m160 142.8-85.9 48.6c-4.7 3-8.9 2.4-11.9 0l-.6.6.6.6c3 2.4 7.1 3 11.9 0z" style="opacity:.2"/><path d="M61.6 191.4c-1.8-1.8-2.4-4.7-2.4-8.3v.6c0 3.6 1.2 6.5 3 8.3v-.6zm128-65.2L160 142.8l.6.6 29-16.6c4.1-2.4 5.9-5.3 5.9-8.3.1 3-2.3 5.4-5.9 7.7" style="opacity:.12"/><path d="m74.1 45 115.6 65.8c3.6 2.4 5.9 4.7 5.9 7.7 0-3-1.8-5.9-5.9-8.3L74.1 44.4c-8.3-4.7-14.8-1.2-14.8 8.3v.6c0-8.9 6.5-13 14.8-8.3" style="opacity:.25;fill:#fff"/></svg>