<?xml version="1.0" encoding="UTF-8"?><svg id="a" xmlns="http://www.w3.org/2000/svg" viewBox="0 0 18.95 21.74"><defs><style>.f,.g{fill:#262626;}.g{fill-rule:evenodd;}</style></defs><g id="b"><g id="c"><path id="d" class="g" d="M18.95,5.95H0v11.79c0,2.21,1.79,4,4,4H14.95c2.21,0,4-1.79,4-4V5.95ZM4,20.24c-1.38,0-2.5-1.12-2.5-2.5V7.45h15.95v10.29c0,1.38-1.12,2.5-2.5,2.5H4Z"/><path id="e" class="f" d="M6.01,11.15V4.96c0-1.91,1.55-3.46,3.46-3.46s3.46,1.55,3.46,3.46v6.19c0,.41,.34,.75,.75,.75s.75-.34,.75-.75V4.96c0-2.74-2.22-4.96-4.96-4.96S4.51,2.22,4.51,4.96v6.19c0,.41,.34,.75,.75,.75s.75-.34,.75-.75Z"/></g></g></svg>