<?xml version="1.0" encoding="UTF-8"?><svg xmlns="http://www.w3.org/2000/svg" viewBox="0 0 200 200"><defs><style>.c{fill:#fff;}</style></defs><g id="a"/><g id="b"><path class="c" d="M200,48.28v103.44c0,26.65-21.63,48.27-48.28,48.27h-43.42v-64.2h25.89c2.68,0,4.94-2.01,5.28-4.68l1.99-15.99c.39-3.18-2.08-6-5.28-6h-27.88v-23.34c0-7.36,5.94-13.33,13.27-13.33h16.6c1.83,0,3.32-1.5,3.32-3.33v-20.01c0-1.83-1.49-3.33-3.32-3.33h-23.24c-18.33,0-33.19,14.93-33.19,33.34v30h-19.92c-1.83,0-3.32,1.5-3.32,3.33v20.01c0,1.83,1.49,3.33,3.32,3.33h19.92v64.2H48.28c-26.66,0-48.28-21.62-48.28-48.27V48.28C0,21.62,21.62,0,48.28,0h103.44c26.65,0,48.28,21.62,48.28,48.28Z"/></g></svg>